<?xml version="1.0" standalone="no"?>
<!DOCTYPE svg PUBLIC "-//W3C//DTD SVG 20010904//EN"
 "http://www.w3.org/TR/2001/REC-SVG-20010904/DTD/svg10.dtd">
<svg version="1.0" xmlns="http://www.w3.org/2000/svg"
 width="150.000000pt" height="150.000000pt" viewBox="0 0 150.000000 150.000000"
 preserveAspectRatio="xMidYMid meet">
<metadata>
Created by potrace 1.14, written by Peter Selinger 2001-2017
</metadata>
<g transform="translate(0.000000,150.000000) scale(0.100000,-0.100000)"
fill="#000000" stroke="none">
<path d="M880 1429 c-91 -15 -209 -80 -273 -149 -58 -62 -110 -158 -122 -221
-6 -35 -9 -37 -71 -54 -229 -62 -387 -311 -345 -545 47 -260 292 -440 548
-403 188 27 336 154 399 342 l22 63 63 22 c139 46 238 130 293 246 71 147 71
290 3 431 -92 191 -309 304 -517 268z m213 -60 c125 -42 216 -122 270 -237 27
-57 32 -81 35 -162 6 -143 -34 -246 -134 -342 -42 -41 -129 -91 -186 -106
l-38 -10 0 33 c0 103 -54 235 -130 319 -87 94 -187 144 -324 161 l-58 7 6 31
c19 99 123 229 220 276 112 55 233 65 339 30z m-383 -418 c155 -59 265 -207
278 -375 l5 -69 -75 5 c-206 13 -380 187 -395 395 l-6 76 69 -5 c38 -3 94 -15
124 -27z m-236 -41 c14 -126 67 -232 157 -319 76 -73 219 -131 325 -131 l32 0
-10 -37 c-31 -117 -129 -231 -245 -286 -64 -30 -74 -32 -184 -32 -113 0 -117
1 -190 37 -93 46 -168 122 -212 215 -30 64 -32 75 -32 178 1 91 5 120 24 168
42 107 142 204 256 250 67 27 72 24 79 -43z"/>
<path d="M570 914 c0 -12 6 -15 23 -10 12 3 25 6 30 6 4 0 7 5 7 10 0 6 -13
10 -30 10 -21 0 -30 -5 -30 -16z"/>
<path d="M633 872 c-52 -15 -61 -24 -44 -50 7 -12 22 -10 82 9 85 26 100 36
79 49 -20 13 -55 11 -117 -8z"/>
<path d="M703 797 c-81 -28 -91 -34 -82 -49 13 -24 18 -23 133 13 96 30 97 31
80 50 -21 24 -20 24 -131 -14z"/>
<path d="M768 722 c-48 -15 -90 -30 -93 -33 -3 -3 3 -13 13 -22 16 -15 25 -14
116 14 76 24 96 34 92 46 -3 8 -6 17 -6 19 0 9 -40 1 -122 -24z"/>
<path d="M820 643 l-74 -26 32 -15 c28 -14 37 -14 92 3 51 16 60 22 58 39 -4
29 -22 29 -108 -1z"/>
<path d="M902 571 c-10 -6 -7 -10 12 -13 18 -4 26 -1 26 8 0 16 -18 18 -38 5z"/>
<path d="M373 891 c-84 -39 -162 -129 -198 -231 -21 -57 -21 -174 -1 -243 17
-60 75 -143 132 -188 143 -115 352 -112 497 8 47 40 102 115 112 156 7 25 5
27 -23 27 -52 0 -158 39 -220 80 -124 83 -212 213 -235 346 -6 35 -14 64 -17
64 -3 0 -24 -9 -47 -19z"/>
</g>
</svg>
